<?xml version="1.0" encoding="utf-8"?>
<!-- Generator: Adobe Illustrator 17.0.0, SVG Export Plug-In . SVG Version: 6.00 Build 0)  -->
<!DOCTYPE svg PUBLIC "-//W3C//DTD SVG 1.1//EN" "http://www.w3.org/Graphics/SVG/1.1/DTD/svg11.dtd">
<svg version="1.1" id="Layer_1" xmlns="http://www.w3.org/2000/svg" xmlns:xlink="http://www.w3.org/1999/xlink" x="0px" y="0px"
	 width="23.383px" height="40.096px" viewBox="0.666 16.734 23.383 40.096" enable-background="new 0.666 16.734 23.383 40.096"
	 xml:space="preserve">
<g>
	<path fill="#FFFFFF" d="M0.666,36.782c0-0.321,0.161-0.683,0.401-0.924L19.79,17.136c0.241-0.241,0.603-0.401,0.924-0.401
		s0.684,0.161,0.924,0.401l2.01,2.009c0.24,0.241,0.401,0.603,0.401,0.924s-0.161,0.683-0.401,0.924l-15.79,15.79l15.79,15.79
		c0.24,0.24,0.401,0.602,0.401,0.924c0,0.361-0.161,0.683-0.401,0.924l-2.01,2.009c-0.24,0.241-0.603,0.401-0.924,0.401
		s-0.683-0.16-0.924-0.401L1.067,37.706C0.827,37.465,0.666,37.104,0.666,36.782z"/>
</g>
</svg>
