<?xml version="1.0" encoding="utf-8"?>
<!-- Generator: Adobe Illustrator 17.0.0, SVG Export Plug-In . SVG Version: 6.00 Build 0)  -->
<!DOCTYPE svg PUBLIC "-//W3C//DTD SVG 1.1//EN" "http://www.w3.org/Graphics/SVG/1.1/DTD/svg11.dtd">
<svg version="1.1" id="Layer_1" xmlns="http://www.w3.org/2000/svg" xmlns:xlink="http://www.w3.org/1999/xlink" x="0px" y="0px"
	 width="23.382px" height="40.096px" viewBox="0.666 18.811 23.382 40.096" enable-background="new 0.666 18.811 23.382 40.096"
	 xml:space="preserve">
<g enable-background="new    ">
	<path fill="#FFFFFF" d="M23.646,39.782L4.924,58.505C4.683,58.746,4.321,58.906,4,58.906s-0.683-0.16-0.924-0.401l-2.009-2.009
		c-0.241-0.241-0.401-0.563-0.401-0.924c0-0.322,0.161-0.684,0.401-0.925l15.79-15.789L1.067,23.069
		c-0.241-0.241-0.401-0.603-0.401-0.925c0-0.321,0.161-0.683,0.401-0.924l2.009-2.009C3.317,18.971,3.679,18.811,4,18.811
		s0.683,0.16,0.924,0.401l18.723,18.723c0.24,0.241,0.401,0.603,0.401,0.924S23.887,39.541,23.646,39.782z"/>
</g>
</svg>
